<?xml version="1.0" encoding="utf-8"?>
<!-- Generator: Adobe Illustrator 13.0.0, SVG Export Plug-In . SVG Version: 6.00 Build 14948)  -->
<!DOCTYPE svg PUBLIC "-//W3C//DTD SVG 1.1//EN" "http://www.w3.org/Graphics/SVG/1.1/DTD/svg11.dtd">
<svg version="1.1" id="Layer_2" xmlns="http://www.w3.org/2000/svg" xmlns:xlink="http://www.w3.org/1999/xlink" x="0px" y="0px"
	 width="36.917px" height="43.705px" viewBox="0 0 36.917 43.705" enable-background="new 0 0 36.917 43.705" xml:space="preserve">
<rect x="3.691" y="34.559" width="25.316" height="7.794"/>
<polygon points="0.934,12.231 7.692,8.128 21.892,35.454 15.133,39.555 "/>
<ellipse fill="#FFFFFF" cx="5.752" cy="11.172" rx="6.034" ry="6.522"/>
<ellipse cx="4.978" cy="10.844" rx="5.059" ry="5.466"/>
<ellipse fill="#FFFFFF" cx="4.927" cy="10.79" rx="2.784" ry="3.008"/>
<ellipse cx="4.927" cy="10.79" rx="1.105" ry="1.194"/>
<rect x="11.787" y="7.518" width="15.014" height="6.521"/>
<polygon points="18.718,10.125 30.447,2.805 31.766,5.272 20.038,12.593 "/>
<polygon points="22.081,8.85 31.916,18.908 30.375,20.668 20.54,10.609 "/>
<polygon points="34.158,9.648 29.99,2.505 32.034,1.112 36.201,8.256 "/>
<polygon points="35.784,15.203 30.425,21.348 28.667,19.557 34.024,13.412 "/>
</svg>
